<svg width="64" height="65" viewBox="0 0 64 65" fill="none" xmlns="http://www.w3.org/2000/svg">
<path d="M47.5 22.713C54.2425 22.7502 57.8943 23.0509 60.2751 25.4317C63 28.1566 63 32.54 63 41.3068V44.4068C63 53.1767 63 57.5601 60.2751 60.285C57.5533 63.0068 53.1668 63.0068 44.4 63.0068H19.6001C10.8333 63.0068 6.44677 63.0068 3.72497 60.285C1.00007 57.557 1.00007 53.1767 1.00007 44.4068V41.3068C1.00007 32.54 1.00007 28.1566 3.72497 25.4317C6.10577 23.0509 9.75756 22.7502 16.5001 22.713" stroke="#EFE5FF" stroke-width="2" stroke-linecap="round"/>
<path d="M32 41.3V1.00007M32 1.00007L41.3 11.8501M32 1.00007L22.7 11.8501" stroke="#EFE5FF" stroke-width="2" stroke-linecap="round" stroke-linejoin="round"/>
</svg>
