<svg width="29" height="29" viewBox="0 0 29 29" fill="none" xmlns="http://www.w3.org/2000/svg">
<path d="M7.85415 1.8125C7.1331 1.8125 6.44157 2.09894 5.93171 2.6088C5.42185 3.11866 5.13541 3.81019 5.13541 4.53124C5.13541 5.2523 5.42185 5.94382 5.93171 6.45368C6.44157 6.96355 7.1331 7.24999 7.85415 7.24999C8.57521 7.24999 9.26673 6.96355 9.77659 6.45368C10.2865 5.94382 10.5729 5.2523 10.5729 4.53124C10.5729 3.81019 10.2865 3.11866 9.77659 2.6088C9.26673 2.09894 8.57521 1.8125 7.85415 1.8125ZM3.32291 4.53124C3.32291 3.32948 3.80031 2.17694 4.65008 1.32717C5.49985 0.477397 6.65239 0 7.85415 0C9.05591 0 10.2085 0.477397 11.0582 1.32717C11.908 2.17694 12.3854 3.32948 12.3854 4.53124C12.3854 5.733 11.908 6.88554 11.0582 7.73531C10.2085 8.58508 9.05591 9.06248 7.85415 9.06248C6.65239 9.06248 5.49985 8.58508 4.65008 7.73531C3.80031 6.88554 3.32291 5.733 3.32291 4.53124ZM0 13.2699C0 11.9468 1.07179 10.875 2.39491 10.875H9.16156C8.93241 11.4537 8.79935 12.0659 8.76765 12.6875H2.39491C2.24045 12.6875 2.09231 12.7488 1.98308 12.8581C1.87386 12.9673 1.8125 13.1154 1.8125 13.2699V13.7448C1.8125 13.9526 1.81491 15.2105 2.54595 16.3995C3.17429 17.4193 4.4237 18.5249 7.08082 18.7038C6.46637 19.103 5.98769 19.6794 5.70816 20.3568C3.28545 19.9085 1.83304 18.6989 1.00291 17.348C-6.11097e-08 15.7204 0 14.0384 0 13.7484V13.2699ZM19.8372 10.875C20.0619 11.4405 20.1997 12.0507 20.2311 12.6875H26.605C26.9264 12.6875 27.1874 12.9485 27.1874 13.2699V13.7448C27.1874 13.9526 27.185 15.2105 26.4528 16.3995C25.8257 17.4193 24.5775 18.5249 21.9191 18.7038C22.5293 19.1001 23.0115 19.6765 23.2918 20.3568C25.7145 19.9085 27.1669 18.6989 27.997 17.348C28.9999 15.7192 28.9999 14.0372 28.9999 13.7472V13.2699C28.9999 12.6347 28.7476 12.0256 28.2985 11.5764C27.8494 11.1273 27.2402 10.875 26.605 10.875H19.8372ZM21.1458 1.8125C20.4247 1.8125 19.7332 2.09894 19.2233 2.6088C18.7135 3.11866 18.427 3.81019 18.427 4.53124C18.427 5.2523 18.7135 5.94382 19.2233 6.45368C19.7332 6.96355 20.4247 7.24999 21.1458 7.24999C21.8668 7.24999 22.5584 6.96355 23.0682 6.45368C23.5781 5.94382 23.8645 5.2523 23.8645 4.53124C23.8645 3.81019 23.5781 3.11866 23.0682 2.6088C22.5584 2.09894 21.8668 1.8125 21.1458 1.8125ZM16.6146 4.53124C16.6146 3.32948 17.0919 2.17694 17.9417 1.32717C18.7915 0.477397 19.944 0 21.1458 0C22.3476 0 23.5001 0.477397 24.3499 1.32717C25.1996 2.17694 25.677 3.32948 25.677 4.53124C25.677 5.733 25.1996 6.88554 24.3499 7.73531C23.5001 8.58508 22.3476 9.06248 21.1458 9.06248C19.944 9.06248 18.7915 8.58508 17.9417 7.73531C17.0919 6.88554 16.6146 5.733 16.6146 4.53124ZM6.64582 21.7282C6.64582 20.4051 7.71761 19.3333 9.04073 19.3333H19.9592C21.2823 19.3333 22.3541 20.4051 22.3541 21.7282V22.2055C22.3541 22.4955 22.3541 24.1775 21.3512 25.8063C20.3 27.5173 18.253 28.9999 14.5 28.9999C10.7469 28.9999 8.69998 27.5161 7.64873 25.8075C6.64582 24.1775 6.64582 22.4967 6.64582 22.2055V21.7282ZM9.04073 21.1458C8.88627 21.1458 8.73813 21.2072 8.6289 21.3164C8.51968 21.4256 8.45832 21.5737 8.45832 21.7282V22.2031C8.45832 22.4109 8.46073 23.6688 9.19177 24.8578C9.87811 25.9719 11.3051 27.1874 14.5 27.1874C17.6948 27.1874 19.1218 25.9719 19.807 24.8578C20.5392 23.67 20.5416 22.4109 20.5416 22.2031V21.7282C20.5416 21.5737 20.4803 21.4256 20.371 21.3164C20.2618 21.2072 20.1137 21.1458 19.9592 21.1458H9.04073ZM11.7812 12.9896C11.7812 12.6325 11.8515 12.279 11.9882 11.9491C12.1248 11.6193 12.3251 11.3196 12.5775 11.0671C12.83 10.8147 13.1297 10.6144 13.4596 10.4778C13.7894 10.3411 14.1429 10.2708 14.5 10.2708C14.857 10.2708 15.2105 10.3411 15.5404 10.4778C15.8702 10.6144 16.17 10.8147 16.4224 11.0671C16.6749 11.3196 16.8751 11.6193 17.0118 11.9491C17.1484 12.279 17.2187 12.6325 17.2187 12.9896C17.2187 13.7106 16.9323 14.4021 16.4224 14.912C15.9126 15.4219 15.221 15.7083 14.5 15.7083C13.7789 15.7083 13.0874 15.4219 12.5775 14.912C12.0677 14.4021 11.7812 13.7106 11.7812 12.9896ZM14.5 8.45832C13.2982 8.45832 12.1457 8.93571 11.2959 9.78549C10.4461 10.6353 9.96873 11.7878 9.96873 12.9896C9.96873 14.1913 10.4461 15.3439 11.2959 16.1936C12.1457 17.0434 13.2982 17.5208 14.5 17.5208C15.7017 17.5208 16.8543 17.0434 17.704 16.1936C18.5538 15.3439 19.0312 14.1913 19.0312 12.9896C19.0312 11.7878 18.5538 10.6353 17.704 9.78549C16.8543 8.93571 15.7017 8.45832 14.5 8.45832Z" fill="#5C5C5C"/>
</svg>
