 <svg  version="1.0" xmlns="http://www.w3.org/2000/svg"  width="900.000000pt" height="276.000000pt" viewBox="0 0 900.000000 276.000000"  preserveAspectRatio="xMidYMid meet">  <g transform="translate(0.000000,276.000000) scale(0.100000,-0.100000)" fill="#4931a0" stroke="none"> <path d="M2795 2612 c-1 -2 -553 -3 -1226 -4 -794 0 -1249 -4 -1294 -11 -76 -11 -125 -36 -181 -94 -41 -42 -74 -110 -74 -152 0 -16 -4 -33 -10 -36 -14 -9 -14 -1891 0 -1900 6 -3 10 -18 10 -32 0 -35 36 -105 76 -147 54 -57 108 -86 172 -92 109 -10 2425 -17 5377 -16 2549 1 2971 3 2980 15 7 9 8 373 5 1143 l-5 1130 -39 53 c-51 69 -126 117 -203 130 -33 6 -339 10 -723 10 -366 0 -1609 2 -2763 3 -1154 2 -2100 2 -2102 0z m-161 -72 l26 -10 0 -405 c0 -367 4 -440 24 -390 4 12 24 15 91 15 96 0 125 -16 125 -67 0 -16 6 -48 14 -73 8 -25 21 -68 30 -96 9 -29 16 -60 16 -70 0 -11 6 -39 14 -64 35 -111 62 -220 76 -311 5 -31 14 -68 20 -83 5 -15 10 -38 10 -51 0 -48 19 -34 30 22 7 32 30 119 52 193 22 74 43 149 48 165 5 17 18 57 29 90 11 33 36 114 56 180 20 66 38 126 40 133 7 22 54 32 145 32 113 0 136 -9 143 -52 2 -18 9 -46 15 -63 10 -29 15 -50 48 -190 8 -33 21 -87 30 -120 8 -33 18 -78 23 -100 4 -22 13 -58 19 -80 14 -53 41 -184 44 -213 4 -36 22 -27 31 15 10 41 72 254 116 398 16 50 43 137 60 195 66 216 61 210 170 210 80 0 101 -6 101 -29 0 -17 -25 -97 -47 -148 -7 -17 -13 -37 -13 -45 0 -7 -12 -44 -26 -83 -14 -38 -29 -83 -33 -100 -13 -49 -62 -197 -77 -233 -8 -18 -14 -39 -14 -47 0 -8 -6 -29 -14 -47 -8 -18 -29 -80 -46 -138 -18 -58 -38 -121 -45 -140 -8 -19 -17 -46 -20 -60 -18 -65 -27 -70 -133 -70 -53 0 -103 4 -110 8 -13 9 -39 107 -158 587 -37 149 -69 276 -71 284 -7 25 -23 -3 -33 -55 -8 -46 -27 -113 -49 -179 -14 -43 -71 -231 -88 -295 -9 -30 -22 -67 -29 -82 -8 -14 -14 -39 -14 -55 0 -16 -4 -33 -9 -39 -6 -5 -14 -27 -20 -49 -13 -55 -34 -109 -46 -117 -15 -11 -183 -10 -204 1 -17 10 -24 28 -55 146 -9 33 -28 103 -42 155 -15 52 -37 136 -49 185 -13 50 -31 117 -40 150 -10 33 -23 85 -30 115 -7 30 -21 82 -30 115 -9 33 -25 93 -35 133 -10 41 -23 79 -29 85 -8 8 -11 -191 -11 -741 0 -737 0 -752 -20 -762 -13 -7 -386 -9 -1192 -8 l-1173 3 -53 29 c-30 17 -69 48 -87 70 -69 85 -66 35 -63 1101 3 916 4 962 22 993 31 56 99 117 157 139 54 22 54 22 1206 22 726 1 1161 -3 1177 -9z m3895 -244 c9 -11 11 -132 9 -480 -2 -345 0 -466 8 -466 10 0 64 44 134 110 24 22 83 75 175 155 44 39 91 80 105 93 38 35 57 40 173 41 91 0 109 -2 114 -16 4 -10 -2 -23 -18 -35 -13 -11 -45 -38 -70 -61 -25 -23 -68 -61 -95 -83 -27 -23 -71 -63 -99 -88 -27 -26 -76 -68 -107 -94 -32 -26 -58 -54 -58 -63 0 -8 29 -56 65 -105 62 -84 189 -260 335 -463 36 -50 68 -91 72 -91 15 0 8 -28 -8 -34 -9 -3 -62 -6 -119 -6 l-103 0 -30 38 c-16 20 -59 82 -97 136 -37 55 -71 104 -76 110 -17 21 -95 132 -142 203 -26 40 -51 75 -56 77 -4 3 -29 -17 -56 -44 l-48 -49 1 -225 c1 -212 0 -226 -18 -236 -20 -11 -158 -14 -184 -4 -14 6 -16 88 -16 834 0 650 3 830 13 838 29 24 178 30 196 8z m-1459 -551 c180 -62 302 -190 356 -370 24 -82 24 -284 0 -375 -50 -189 -169 -323 -343 -387 -59 -22 -85 -26 -198 -27 -105 -1 -140 3 -180 18 -72 27 -118 47 -132 60 -7 6 -33 27 -56 46 -40 32 -93 103 -127 170 -52 100 -68 362 -31 493 52 179 180 309 370 375 58 19 80 21 181 17 67 -2 134 -11 160 -20z m1126 12 c8 -8 -15 -149 -27 -168 -5 -9 -35 -15 -86 -17 -74 -4 -80 -6 -117 -40 -21 -21 -60 -68 -88 -107 l-49 -69 2 -365 c1 -322 -1 -365 -15 -373 -9 -5 -53 -8 -98 -6 l-83 3 -5 550 c-3 303 -1 554 3 560 12 15 155 19 172 5 9 -8 15 -30 15 -56 0 -24 4 -44 10 -44 5 0 29 19 52 41 55 53 98 86 123 92 27 8 183 2 191 -6z m1948 -633 c19 -18 21 -55 4 -72 -20 -20 -54 -14 -68 13 -11 20 -10 28 4 50 19 29 38 32 60 9z m-249 -156 l27 -21 17 22 c13 18 23 21 44 16 l27 -7 -2 -182 -3 -181 -27 -3 c-19 -2 -30 3 -38 18 -12 22 -12 22 -33 2 -51 -46 -169 -39 -228 15 -52 47 -69 85 -69 155 0 66 27 120 76 154 45 30 55 33 120 33 48 1 67 -4 89 -21z m246 12 c18 -10 19 -23 19 -184 0 -149 -2 -175 -16 -180 -26 -10 -52 -7 -57 7 -2 6 -5 85 -6 175 -2 189 5 211 60 182z"/> <path d="M1055 1692 c-54 -21 -96 -44 -124 -68 -36 -30 -48 -25 -53 25 l-3 34 -123 0 c-68 -1 -125 -3 -127 -5 -3 -2 -5 -238 -5 -524 l-1 -519 130 -3 130 -3 3 335 c2 251 6 338 16 348 6 6 12 22 12 33 0 27 58 81 107 99 73 27 122 27 170 -1 23 -13 47 -23 52 -21 21 7 160 178 156 190 -3 8 -28 29 -57 47 -48 32 -56 34 -157 37 -58 2 -115 0 -126 -4z"/> <path d="M1815 1694 c-157 -40 -296 -150 -367 -289 -45 -89 -62 -201 -49 -327 19 -180 136 -341 296 -412 22 -9 48 -21 57 -26 9 -5 64 -16 122 -25 96 -14 112 -14 198 1 115 21 218 67 280 125 l47 44 -74 70 c-41 39 -80 68 -87 65 -7 -3 -32 -17 -55 -32 -54 -35 -108 -50 -206 -55 -65 -4 -82 -1 -98 13 -23 21 -24 40 -4 51 8 5 132 126 276 268 l260 260 -17 30 c-47 82 -109 145 -178 182 -107 56 -106 56 -246 59 -74 1 -144 0 -155 -2z m275 -243 c14 -10 26 -24 26 -32 1 -8 -90 -103 -201 -211 -195 -191 -239 -223 -249 -185 -2 6 -9 30 -16 52 -26 78 -8 192 43 271 30 47 61 75 107 99 70 35 244 38 290 6z"/> <path d="M4787 1579 c-63 -13 -127 -61 -166 -124 -35 -57 -61 -178 -61 -285 0 -71 23 -208 41 -243 23 -43 73 -99 109 -122 37 -23 143 -55 185 -55 37 0 145 30 174 48 44 28 97 93 122 152 22 51 24 68 23 220 0 164 -1 165 -32 231 -60 124 -137 177 -269 184 -43 2 -100 0 -126 -6z"/> <path d="M7750 913 c-8 -3 -27 -20 -42 -36 -22 -24 -28 -41 -28 -75 0 -62 29 -105 86 -127 43 -16 48 -16 84 0 55 25 80 64 80 124 0 43 -5 55 -34 85 -30 32 -39 36 -82 35 -27 0 -56 -3 -64 -6z"/> </g> </svg> 